<svg width="33" height="24" viewBox="0 0 33 24" fill="none" xmlns="http://www.w3.org/2000/svg">
<path d="M20.9655 0C23.3389 0 25.659 0.703788 27.6324 2.02236C29.6058 3.34094 31.1439 5.21509 32.0521 7.4078C32.9604 9.60051 33.198 12.0133 32.735 14.3411C32.2719 16.6689 31.1291 18.8071 29.4508 20.4853C27.7726 22.1635 25.6344 23.3064 23.3066 23.7694C20.9789 24.2324 18.5661 23.9948 16.3733 23.0866C14.1806 22.1783 12.3065 20.6402 10.9879 18.6668C9.66933 16.6935 8.96555 14.3734 8.96555 12C8.96555 8.8174 10.2298 5.76516 12.4803 3.51472C14.7307 1.26428 17.7829 0 20.9655 0ZM2.96555 12C2.96767 13.8594 3.54565 15.6725 4.62004 17.1901C5.69444 18.7076 7.21249 19.8552 8.96555 20.475V23.61C6.39756 22.9388 4.12456 21.4352 2.50228 19.3344C0.880001 17.2336 0 14.6543 0 12C0 9.34575 0.880001 6.76639 2.50228 4.66561C4.12456 2.56483 6.39756 1.06118 8.96555 0.39V3.525C7.21249 4.1448 5.69444 5.29235 4.62004 6.80993C3.54565 8.32751 2.96767 10.1406 2.96555 12Z" fill="#2C6E49"/>
</svg>
